<svg width="28" height="20" viewBox="0 0 28 20" fill="none" xmlns="http://www.w3.org/2000/svg">
<path d="M9.24098 13.3629C8.6853 13.9137 8.6853 14.8067 9.24098 15.3573C9.79686 15.9081 10.6976 15.9081 11.2533 15.3573C12.7673 13.8567 15.2312 13.8567 16.7451 15.3573C17.0231 15.6326 17.3873 15.7705 17.7514 15.7705C18.1155 15.7705 18.4797 15.6328 18.7577 15.3573C19.3134 14.8065 19.3134 13.9135 18.7577 13.3629C16.1339 10.7622 11.8648 10.7622 9.24098 13.3629Z" fill="white"/>
<path d="M5.07131 9.22898C4.51562 9.77977 4.51562 10.6728 5.07131 11.2234C5.62699 11.774 6.52778 11.7744 7.08366 11.2234C10.8974 7.44328 17.1029 7.44328 20.9165 11.2234C21.1944 11.4987 21.5587 11.6366 21.9227 11.6366C22.2868 11.6366 22.6511 11.4989 22.929 11.2234C23.4847 10.6726 23.4847 9.77959 22.929 9.22898C18.0056 4.34913 9.99471 4.34913 5.07131 9.22898Z" fill="white"/>
<path opacity="0.4" d="M27.5832 5.56796C20.0933 -1.85599 7.9065 -1.85599 0.416766 5.56796C-0.138922 6.11875 -0.138922 7.01179 0.416766 7.5624C0.972643 8.11319 1.87343 8.11319 2.42912 7.5624C5.51964 4.49891 9.62896 2.81193 13.9999 2.81193C18.3708 2.81193 22.4802 4.49909 25.5707 7.5624C25.8486 7.8377 26.2129 7.97554 26.577 7.97554C26.941 7.97554 27.3053 7.83789 27.5832 7.5624C28.1389 7.01179 28.1389 6.11875 27.5832 5.56796Z" fill="white"/>
<path d="M13.9991 19.9999C14.8615 19.9999 15.5607 19.307 15.5607 18.4521C15.5607 17.5973 14.8615 16.9043 13.9991 16.9043C13.1366 16.9043 12.4375 17.5973 12.4375 18.4521C12.4375 19.307 13.1366 19.9999 13.9991 19.9999Z" fill="white"/>
</svg>
