<svg width="28" height="20" viewBox="0 0 28 20" fill="none" xmlns="http://www.w3.org/2000/svg">
<path d="M9.24294 13.3629C8.68725 13.9137 8.68725 14.8067 9.24294 15.3573C9.79882 15.9081 10.6996 15.9081 11.2553 15.3573C12.7692 13.8567 15.2331 13.8567 16.7471 15.3573C17.025 15.6326 17.3893 15.7705 17.7534 15.7705C18.1174 15.7705 18.4817 15.6328 18.7596 15.3573C19.3153 14.8065 19.3153 13.9135 18.7596 13.3629C16.1358 10.7622 11.8668 10.7622 9.24294 13.3629Z" fill="white"/>
<path d="M5.07106 9.22898C4.51538 9.77977 4.51538 10.6728 5.07106 11.2234C5.62675 11.774 6.52754 11.7744 7.08341 11.2234C10.8971 7.44328 17.1027 7.44328 20.9162 11.2234C21.1941 11.4987 21.5584 11.6366 21.9225 11.6366C22.2866 11.6366 22.6508 11.4989 22.9287 11.2234C23.4844 10.6726 23.4844 9.77959 22.9287 9.22898C18.0054 4.34913 9.99446 4.34913 5.07106 9.22898Z" fill="white"/>
<path d="M27.5832 5.56796C20.0933 -1.85599 7.9065 -1.85599 0.416766 5.56796C-0.138922 6.11875 -0.138922 7.01179 0.416766 7.5624C0.972643 8.11319 1.87343 8.11319 2.42912 7.5624C5.51964 4.49891 9.62896 2.81193 13.9999 2.81193C18.3708 2.81193 22.4802 4.49909 25.5707 7.5624C25.8486 7.8377 26.2129 7.97554 26.577 7.97554C26.941 7.97554 27.3053 7.83789 27.5832 7.5624C28.1389 7.01179 28.1389 6.11875 27.5832 5.56796Z" fill="white"/>
<path d="M14.0008 19.9999C14.8632 19.9999 15.5624 19.307 15.5624 18.4521C15.5624 17.5973 14.8632 16.9043 14.0008 16.9043C13.1384 16.9043 12.4392 17.5973 12.4392 18.4521C12.4392 19.307 13.1384 19.9999 14.0008 19.9999Z" fill="white"/>
</svg>
